<svg width="20" height="12" viewBox="0 0 20 12" fill="none" xmlns="http://www.w3.org/2000/svg">
<path d="M17.6 1.6H12V0H17.6V1.6ZM18.9808 9.6C18.6272 10.6376 17.3576 12 14.9 12C12.4408 12 10.4488 10.6168 10.4488 7.46C10.4488 4.332 12.3088 2.724 14.8216 2.724C17.2872 2.724 18.7928 4.1496 19.1216 6.2648C19.184 6.6696 19.2088 7.2152 19.1976 7.9768H12.776C12.88 10.5456 15.5624 10.6264 16.4464 9.6H18.9808ZM12.832 6.4H16.804C16.72 5.1624 15.8952 4.6248 14.8224 4.6248C13.6496 4.6248 13.0008 5.2392 12.832 6.4ZM5.1728 11.9904H0V0.0167999H5.5624C9.9432 0.0815999 10.0264 4.372 7.7384 5.5416C10.5072 6.5496 10.6 11.9904 5.1728 11.9904ZM2.4 4.8H5.2672C7.2736 4.8 7.592 2.4 5.0176 2.4H2.4V4.8ZM5.1128 7.2H2.4V9.6128H5.0728C7.5168 9.6128 7.3672 7.2 5.1128 7.2Z" fill="white"/>
</svg>
